<svg width="23" height="24" viewBox="0 0 23 24" fill="none" xmlns="http://www.w3.org/2000/svg">
    <path d="M21.6 12L12.3888 21.2112C11.1101 22.457 9.39221 23.149 7.60705 23.1374C5.82189 23.1258 4.11315 22.4115 2.85082 21.1491C1.58849 19.8868 0.874187 18.1781 0.862571 16.3929C0.850954 14.6077 1.54296 12.8898 2.78876 11.6112L12.2752 2.1248C13.1238 1.27611 14.2749 0.799316 15.4752 0.799316C16.6754 0.799316 17.8265 1.27611 18.6752 2.1248C19.5238 2.97349 20.0006 4.12457 20.0006 5.3248C20.0006 6.52503 19.5238 7.67611 18.6752 8.5248L9.46236 17.7376C9.03801 18.1619 8.46247 18.4003 7.86236 18.4003C7.26224 18.4003 6.6867 18.1619 6.26236 17.7376C5.83801 17.3133 5.59961 16.7377 5.59961 16.1376C5.59961 15.5375 5.83801 14.9619 6.26236 14.5376L15.2 5.6" stroke="#212121" stroke-width="2"/>
</svg>