<svg width="20" height="20" viewBox="0 0 20 20" fill="none" xmlns="http://www.w3.org/2000/svg">
<path d="M6 0.75C6 0.335786 5.66421 0 5.25 0H3C1.34315 0 0 1.34315 0 3V17C0 18.6569 1.34315 20 3 20H17C18.6569 20 20 18.6569 20 17V3C20 1.34315 18.6569 0 17 0H11C10.6321 0 10.1801 0.156562 9.82468 0.540444C9.45883 0.935562 9.25 1.50885 9.25 2.25V12.4393L5.75736 8.9467C5.46447 8.65381 4.98959 8.65381 4.6967 8.9467C4.40381 9.23959 4.40381 9.71447 4.6967 10.0074L9.46967 14.7803C9.76256 15.0732 10.2374 15.0732 10.5303 14.7803L15.3033 10.0074C15.5962 9.71447 15.5962 9.23959 15.3033 8.9467C15.0104 8.65381 14.5355 8.65381 14.2426 8.9467L10.75 12.4393V2.25C10.75 1.79115 10.8745 1.61444 10.9253 1.55956C10.9657 1.51594 11.0003 1.50395 11.0093 1.50084L11.0115 1.5H17C17.8284 1.5 18.5 2.17157 18.5 3V17C18.5 17.8284 17.8284 18.5 17 18.5H3C2.17157 18.5 1.5 17.8284 1.5 17V3C1.5 2.17157 2.17157 1.5 3 1.5H5.25C5.66421 1.5 6 1.16421 6 0.75Z" fill="#00447C"/>
</svg>