<svg width="24" height="24" viewBox="0 0 24 24" fill="none" xmlns="http://www.w3.org/2000/svg">
    <path d="M17.8648 0L18.0889 0.00611541C19.0539 0.061601 19.9649 0.473716 20.6484 1.16392C21.3318 1.85412 21.7399 2.77415 21.7948 3.74866L21.8009 3.97493V11.0344C21.2347 10.6678 20.6241 10.3763 19.9842 10.1673L19.983 6.11527H1.81785L1.81664 18.0401C1.81666 18.5772 2.01668 19.0947 2.37699 19.4899C2.7373 19.885 3.23156 20.1289 3.76166 20.1731L3.93605 20.1804H10.069C10.2773 20.8335 10.568 21.4487 10.9265 22.015H3.93605C2.93068 22.0151 1.96339 21.6266 1.23261 20.9293C0.501837 20.232 0.0629753 19.2788 0.00605561 18.2651L8.4476e-09 18.0401V3.97493C-6.5819e-05 2.95962 0.384588 1.98278 1.07505 1.24479C1.76552 0.506793 2.70945 0.0635972 3.71321 0.00611541L3.93605 0H17.8648ZM17.8648 1.83458H3.93726C3.37516 1.83458 2.83608 2.06008 2.43861 2.46147C2.04115 2.86287 1.81785 3.40727 1.81785 3.97493V4.28069H19.9842V3.97493C19.9842 3.40727 19.761 2.86287 19.3635 2.46147C18.966 2.06008 18.4269 1.83458 17.8648 1.83458ZM8.78043 7.94986C8.99992 7.94986 9.21199 8.03014 9.37741 8.17583C9.54283 8.32153 9.65042 8.52279 9.68027 8.74239L9.68875 8.86715V17.4285C9.68874 17.6502 9.60925 17.8644 9.46498 18.0314C9.32071 18.1985 9.12141 18.3071 8.90396 18.3373L8.78043 18.3458H4.5416C4.3221 18.3458 4.11004 18.2655 3.94462 18.1198C3.77919 17.9741 3.67161 17.7729 3.64176 17.5533L3.63328 17.4285V8.86715C3.63329 8.64548 3.71278 8.43132 3.85705 8.26427C4.00132 8.09721 4.20061 7.98856 4.41807 7.95842L4.5416 7.94986H8.78043ZM7.87211 9.78444H5.44992V16.5112H7.87211V9.78444ZM18.1664 8.86715C18.1664 8.62387 18.0707 8.39055 17.9004 8.21852C17.73 8.0465 17.499 7.94986 17.2581 7.94986H11.813L11.6907 7.95842C11.4628 7.99008 11.2553 8.10788 11.1101 8.28804C10.9648 8.46819 10.8927 8.69728 10.9082 8.92906C10.9238 9.16084 11.0258 9.37803 11.1937 9.53679C11.3616 9.69555 11.583 9.78406 11.813 9.78444H17.2581L17.3816 9.77588C17.5991 9.74573 17.7984 9.63708 17.9426 9.47003C18.0869 9.30297 18.1664 9.08881 18.1664 8.86715ZM13.6611 13.423C13.7517 13.7394 13.778 14.071 13.7386 14.3979C13.6992 14.7248 13.5948 15.0403 13.4317 15.3255C13.2686 15.6106 13.0502 15.8596 12.7896 16.0575C12.5289 16.2554 12.2313 16.3981 11.9147 16.477L11.2075 16.6531C11.0941 17.3855 11.0965 18.1315 11.2147 18.8632L11.8687 19.0222C12.1879 19.0998 12.4882 19.2422 12.7512 19.4407C13.0143 19.6391 13.2346 19.8895 13.3989 20.1767C13.5631 20.4638 13.6678 20.7816 13.7067 21.1109C13.7455 21.4402 13.7177 21.774 13.6248 22.092L13.3983 22.865C13.9312 23.3371 14.5368 23.7199 15.1956 23.9914L15.7939 23.3579C16.0201 23.1175 16.2924 22.9262 16.5942 22.7954C16.896 22.6646 17.221 22.5972 17.5493 22.5972C17.8777 22.5972 18.2027 22.6646 18.5045 22.7954C18.8063 22.9262 19.0786 23.1175 19.3048 23.3579L19.908 24C20.5637 23.7307 21.1706 23.3534 21.704 22.8834L21.4642 22.0443C21.3739 21.728 21.3476 21.3966 21.3872 21.0698C21.4267 20.7431 21.5311 20.4277 21.6942 20.1427C21.8572 19.8576 22.0756 19.6088 22.3361 19.411C22.5967 19.2132 22.8941 19.0705 23.2106 18.9916L23.9167 18.8155C24.0302 18.0826 24.0277 17.3363 23.9094 16.6042L23.2554 16.4452C22.9362 16.3675 22.6359 16.2252 22.3729 16.0267C22.1099 15.8282 21.8895 15.5778 21.7253 15.2907C21.561 15.0036 21.4563 14.6857 21.4175 14.3565C21.3786 14.0272 21.4065 13.6934 21.4993 13.3753L21.7258 12.6048C21.193 12.1303 20.5856 11.7488 19.9285 11.4759L19.3315 12.1107C19.1052 12.3512 18.8328 12.5428 18.5309 12.6737C18.229 12.8045 17.9039 12.872 17.5754 12.872C17.2468 12.872 16.9217 12.8045 16.6198 12.6737C16.318 12.5428 16.0456 12.3512 15.8193 12.1107L15.2162 11.4686C14.5573 11.7377 13.9518 12.1168 13.4201 12.584L13.6599 13.423H13.6611ZM17.5609 19.5689C16.592 19.5689 15.8048 18.747 15.8048 17.7343C15.8048 16.7204 16.592 15.8997 17.5609 15.8997C18.5297 15.8997 19.3169 16.7204 19.3169 17.7343C19.3169 18.747 18.5297 19.5689 17.5609 19.5689Z"
          fill="#00447C"/>
</svg>