<svg width="18" height="18" viewBox="0 0 18 18" fill="none" xmlns="http://www.w3.org/2000/svg">
<path d="M0 3.44829C0 1.54286 1.54286 0 3.44829 0H14.5517C16.4571 0 18 1.54286 18 3.44829V14.5517C18 16.4571 16.4571 18 14.5517 18H3.44829C2.53374 18 1.65666 17.6367 1.00998 16.99C0.363301 16.3433 0 15.4663 0 14.5517V3.44829ZM13.9551 6.24086C14.0759 6.12015 14.1437 5.95643 14.1437 5.78571C14.1437 5.615 14.0759 5.45128 13.9551 5.33057C13.8344 5.20986 13.6707 5.14204 13.5 5.14204C13.3293 5.14204 13.1656 5.20986 13.0449 5.33057L7.07143 11.3053L4.95514 9.18771C4.83443 9.067 4.67071 8.99919 4.5 8.99919C4.32929 8.99919 4.16557 9.067 4.04486 9.18771C3.92415 9.30843 3.85633 9.47215 3.85633 9.64286C3.85633 9.81357 3.92415 9.97729 4.04486 10.098L6.61629 12.6694C6.676 12.7293 6.74694 12.7768 6.82504 12.8092C6.90314 12.8416 6.98687 12.8583 7.07143 12.8583C7.15599 12.8583 7.23971 12.8416 7.31781 12.8092C7.39592 12.7768 7.46686 12.7293 7.52657 12.6694L13.9551 6.24086Z" fill="#009220"/>
</svg>