<svg width="16" height="21" viewBox="0 0 16 21" fill="none" xmlns="http://www.w3.org/2000/svg">
    <path d="M9.2 13.9999C9 14.0999 8.8 14.0999 8.6 14.1999C8.5 13.9999 8.4 13.7999 8.3 13.6999C7.5 12.9999 6.3 12.8999 5.3 13.4999C4.5 13.9999 4 14.9999 4 15.9999C4 16.4999 4.5 16.9999 5 16.8999C5.5 16.8999 6 16.3999 6 15.8999C6 15.5999 6.1 15.3999 6.3 15.1999C6.4 15.1999 6.5 15.0999 6.6 15.0999C6.3 15.6999 6.5 16.3999 7.1 16.7999C7.3 16.8999 7.4 16.8999 7.6 16.8999C8 16.8999 8.4 16.6999 8.7 16.3999C8.8 16.2999 9 16.1999 9.2 16.0999C9.3 16.4999 9.7 16.8999 10.2 16.8999H11C11.6 16.8999 12 16.4999 12 15.8999C12 15.3999 11.6 14.9999 11.1 14.8999C11 14.6999 11 14.5999 10.8 14.3999C10.5 14.0999 9.8 13.8999 9.2 13.9999V13.9999ZM16 7.8999C16 7.7999 16 7.6999 15.9 7.5999V7.4999C15.9 7.3999 15.8 7.2999 15.7 7.1999L9.7 1.1999C9.6 1.0999 9.5 1.0999 9.4 0.999902H9.3C9.2 0.999902 9.1 0.999902 9 0.899902H3C1.3 0.999902 0 2.2999 0 3.9999V17.9999C0 19.6999 1.3 20.9999 3 20.9999H13C14.7 20.9999 16 19.6999 16 17.9999V7.8999C16 7.9999 16 7.9999 16 7.8999ZM10 4.3999L12.6 6.9999H11C10.4 6.9999 10 6.5999 10 5.9999V4.3999ZM14 17.9999C14 18.5999 13.6 18.9999 13 18.9999H3C2.4 18.9999 2 18.5999 2 17.9999V3.9999C2 3.3999 2.4 2.9999 3 2.9999H8V5.9999C8 7.6999 9.3 8.9999 11 8.9999H14V17.9999ZM5 8.9999H6C6.6 8.9999 7 8.5999 7 7.9999C7 7.3999 6.6 6.9999 6 6.9999H5C4.4 6.9999 4 7.3999 4 7.9999C4 8.5999 4.4 8.9999 5 8.9999Z" fill="#005596"/>
</svg>