<svg width="22" height="20" viewBox="0 0 22 20" fill="none" xmlns="http://www.w3.org/2000/svg">
    <path fill-rule="evenodd" clip-rule="evenodd" d="M2.56453 2.92026C2.56453 2.62898 2.79768 2.39583 3.08896 2.39583H10.9292C11.5085 2.39583 11.9781 1.92623 11.9781 1.34696C11.9781 0.767689 11.5085 0.298096 10.9292 0.298096H3.08896C1.63913 0.298096 0.466797 1.47043 0.466797 2.92026V17.08C0.466797 18.5298 1.63913 19.7021 3.08896 19.7021H10.9292C11.5085 19.7021 11.9781 19.2325 11.9781 18.6533C11.9781 18.074 11.5085 17.6044 10.9292 17.6044H3.08896C2.79768 17.6044 2.56453 17.3712 2.56453 17.08V2.92026ZM21.2258 10.7421C21.2682 10.6997 21.3062 10.6546 21.3399 10.6073C21.5906 10.255 21.5976 9.78243 21.3608 9.42337C21.3222 9.36493 21.2772 9.3095 21.2258 9.25809L15.2472 3.28473C14.8375 2.8753 14.1733 2.87559 13.7639 3.28537C13.3545 3.69516 13.3548 4.35926 13.7646 4.76869L17.9507 8.95123H9.19857C8.61929 8.95123 8.1497 9.42083 8.1497 10.0001C8.1497 10.5794 8.61929 11.049 9.19857 11.049H17.9507L13.7646 15.2313C13.3548 15.6408 13.3545 16.3049 13.7639 16.7147C14.1733 17.1245 14.8374 17.1248 15.2472 16.7153L21.2258 10.7421Z" fill="#005596"/>
</svg>