<svg width="20" height="20" viewBox="0 0 20 20" fill="none" xmlns="http://www.w3.org/2000/svg">
<path fill-rule="evenodd" clip-rule="evenodd" d="M14.3258 12.8985L19.7058 18.2783C19.8949 18.4676 20.0011 18.7242 20.001 18.9917C20.0009 19.2592 19.8945 19.5157 19.7053 19.7048C19.5161 19.8939 19.2595 20.0001 18.9919 20C18.7244 19.9999 18.4679 19.8935 18.2788 19.7043L12.8988 14.3244C11.2905 15.5701 9.26804 16.1563 7.24289 15.9638C5.21773 15.7712 3.34198 14.8145 1.99723 13.2881C0.652478 11.7617 -0.0602652 9.78035 0.00399633 7.74712C0.0682579 5.7139 0.904697 3.78152 2.34315 2.3431C3.78161 0.904675 5.71404 0.0682562 7.74731 0.00399624C9.78058 -0.0602638 11.762 0.652463 13.2884 1.99718C14.8148 3.3419 15.7716 5.21761 15.9641 7.24271C16.1567 9.26782 15.5705 11.2902 14.3248 12.8985H14.3258ZM8.00076 13.9994C9.59206 13.9994 11.1182 13.3673 12.2434 12.2421C13.3686 11.1169 14.0008 9.59084 14.0008 7.99957C14.0008 6.40831 13.3686 4.88222 12.2434 3.75702C11.1182 2.63183 9.59206 1.9997 8.00076 1.9997C6.40946 1.9997 4.88333 2.63183 3.75811 3.75702C2.63289 4.88222 2.00075 6.40831 2.00075 7.99957C2.00075 9.59084 2.63289 11.1169 3.75811 12.2421C4.88333 13.3673 6.40946 13.9994 8.00076 13.9994Z" fill="#00447C"/>
</svg>