<svg width="24" height="24" viewBox="0 0 24 24" fill="none" xmlns="http://www.w3.org/2000/svg">
<path d="M23.1429 9.51219H20.25V5.3561C20.25 4.70854 19.867 4.18537 19.3929 4.18537H10.9554L7.81339 0.0804877C7.77342 0.0293698 7.72083 0.000641329 7.66607 0H0.857143C0.383036 0 0 0.523171 0 1.17073V22.8293C0 23.4768 0.383036 24 0.857143 24H19.5536C19.9018 24 20.2179 23.711 20.3491 23.2683L23.9384 11.122C23.9786 10.9829 24 10.8329 24 10.6829C24 10.0354 23.617 9.51219 23.1429 9.51219ZM1.92857 2.63415H6.97768L10.1813 6.81951H18.3214V9.51219H4.66071C4.3125 9.51219 3.99643 9.80122 3.86518 10.2439L1.92857 16.8V2.63415ZM18.9455 21.3659H2.54464L5.31161 12H21.7152L18.9455 21.3659Z" fill="#212721"/>
</svg>