<svg width="18" height="18" viewBox="0 0 18 18" fill="none" xmlns="http://www.w3.org/2000/svg">
    <path d="M17.3068 10.9922L17.3101 10.9944C17.3897 11.0499 17.4471 11.1275 17.4759 11.2125L17.4772 11.2161C17.5065 11.3006 17.5078 11.3922 17.4796 11.4808C17.0789 12.7091 16.3971 13.8378 15.4824 14.7842C15.4149 14.8535 15.324 14.9035 15.2209 14.9241C15.1177 14.9446 15.0106 14.9338 14.9153 14.8941C14.9151 14.894 14.9149 14.894 14.9148 14.8939L13.6087 14.344C13.6083 14.3438 13.6078 14.3436 13.6074 14.3434C13.3952 14.2531 13.165 14.2118 12.9346 14.2221L12.9346 14.2221L12.929 14.2224C12.6981 14.2353 12.4726 14.3004 12.2708 14.4137C12.0689 14.526 11.8955 14.6838 11.7661 14.8756C11.6369 15.0673 11.5558 15.2871 11.5308 15.5171C11.5308 15.5179 11.5307 15.5186 11.5306 15.5194L11.3737 16.8836C11.3737 16.8837 11.3737 16.8838 11.3737 16.884C11.3634 16.9716 11.3249 17.0568 11.2599 17.1273L11.6273 17.4664L11.2599 17.1273C11.1945 17.1981 11.1052 17.2506 11.0027 17.2738L11.0019 17.274C9.68489 17.5753 8.3118 17.5753 6.99477 17.2742C6.89308 17.2504 6.80451 17.1981 6.73944 17.1276C6.67479 17.0576 6.63623 16.9731 6.62533 16.886C6.62528 16.8856 6.62522 16.8852 6.62517 16.8847L6.46814 15.5217L6.46804 15.5209C6.42587 15.1601 6.24709 14.8313 5.97217 14.5954L5.96949 14.5931C5.75571 14.4122 5.49514 14.2948 5.21852 14.252C4.94196 14.2092 4.65805 14.2422 4.39898 14.3481L4.39896 14.3481L4.39391 14.3502L3.08538 14.9018C3.0852 14.9019 3.08501 14.9019 3.08483 14.902C2.98984 14.9417 2.88312 14.9526 2.78018 14.9323C2.67753 14.912 2.58693 14.8624 2.51943 14.7937C1.60334 13.8463 0.920778 12.716 0.520068 11.486C0.492464 11.4 0.493339 11.3083 0.522683 11.2226C0.552191 11.1364 0.61018 11.0575 0.692534 10.9991L0.692637 10.999L1.84663 10.1807C1.84688 10.1805 1.84713 10.1804 1.84738 10.1802C2.03666 10.0469 2.19254 9.87131 2.30078 9.66639C2.40923 9.4611 2.46633 9.23291 2.46633 9.00056C2.46633 8.76821 2.40923 8.54003 2.30078 8.33473C2.19251 8.12977 2.03659 7.95417 1.84725 7.82084C1.84704 7.8207 1.84683 7.82055 1.84662 7.82041L0.692526 7.0033C0.610835 6.94541 0.553262 6.86716 0.523853 6.78173C0.494689 6.69701 0.493523 6.60645 0.520368 6.52124C0.921146 5.29221 1.60373 4.16293 2.51976 3.21663L2.52004 3.21633C2.56525 3.16956 2.62046 3.13204 2.68271 3.1069L2.68366 3.10651C2.74748 3.08058 2.8168 3.06696 2.88732 3.06696C2.95683 3.06696 3.02518 3.0802 3.08825 3.10542L4.38874 3.65523L4.38873 3.65525L4.39294 3.65699C4.60635 3.74493 4.83735 3.7834 5.06778 3.76998C5.29822 3.75657 5.52319 3.69155 5.72476 3.57905C5.9264 3.46651 6.09978 3.3091 6.22964 3.11794C6.35957 2.92668 6.44196 2.70737 6.46874 2.47749L6.46877 2.47722L6.62681 1.11389C6.62682 1.11378 6.62684 1.11367 6.62685 1.11356C6.63727 1.02488 6.6765 0.938614 6.74284 0.867593C6.80937 0.79637 6.90005 0.744098 7.00378 0.721588C7.66173 0.582395 8.33289 0.508145 9.00677 0.500033C9.67647 0.507733 10.3434 0.581817 10.9967 0.721583L10.9969 0.721623C11.1008 0.743806 11.1916 0.796055 11.258 0.867353C11.3241 0.938356 11.3629 1.02462 11.3727 1.11315L11.373 1.11546L11.5309 2.4763C11.531 2.47665 11.531 2.47701 11.531 2.47737C11.5571 2.70707 11.6389 2.92632 11.7685 3.11754L12.1824 2.83714L11.7685 3.11754C11.8981 3.30895 12.0716 3.46647 12.2734 3.57887C12.4751 3.69123 12.7003 3.75583 12.9308 3.76855C13.1614 3.78128 13.3923 3.74186 13.6053 3.65278L13.607 3.65207L14.9086 3.10213C14.9089 3.10201 14.9092 3.10189 14.9095 3.10176C15.0052 3.06202 15.1126 3.05122 15.2162 3.07176C15.3197 3.09228 15.411 3.1424 15.479 3.21182C16.3944 4.15726 17.0764 5.28563 17.4766 6.5137C17.5044 6.59932 17.5037 6.69057 17.4744 6.7759C17.445 6.86151 17.3871 6.9399 17.305 6.99764L17.3029 6.99907L16.1551 7.81416C16.1543 7.81471 16.1535 7.81526 16.1527 7.81581C15.9631 7.948 15.8067 8.1226 15.6978 8.32677C15.5883 8.5319 15.5305 8.76026 15.5301 8.99293C15.5297 9.22561 15.5867 9.45416 15.6955 9.65967C15.8038 9.86455 15.96 10.0399 16.1496 10.1728C16.1501 10.1732 16.1506 10.1735 16.151 10.1738L17.3068 10.9922ZM8.99993 12.0661C9.83665 12.0661 10.6431 11.7474 11.2408 11.174C11.8392 10.5999 12.1794 9.81666 12.1794 8.99542C12.1794 8.17418 11.8392 7.39099 11.2408 6.81688C10.6431 6.24344 9.83665 5.92475 8.99993 5.92475C8.16321 5.92475 7.3568 6.24344 6.75909 6.81688C6.16067 7.39099 5.82043 8.17418 5.82043 8.99542C5.82043 9.81666 6.16067 10.5999 6.75909 11.174C7.3568 11.7474 8.16321 12.0661 8.99993 12.0661Z" fill="white" stroke="#005596"/>
</svg>