<svg width="40" height="24" viewBox="0 0 40 24" fill="none" xmlns="http://www.w3.org/2000/svg">
<path d="M39.9968 2.66667L39.9968 21.3333C39.9968 22.0406 39.5286 22.7189 38.6951 23.219C37.8617 23.719 36.7313 24 35.5527 24L4.44409 24C3.26544 24 2.13507 23.719 1.30164 23.219C0.468215 22.7189 0 22.0406 0 21.3333L0 2.66667C0 1.95942 0.468215 1.28115 1.30164 0.781048C2.13507 0.280951 3.26544 0 4.44409 0L35.5527 0C36.7313 0 37.8617 0.280951 38.6951 0.781048C39.5286 1.28115 39.9968 1.95942 39.9968 2.66667ZM8.88817 12L19.9984 18.6667V13.3333L31.1086 13.3333V10.6667L19.9984 10.6667L19.9984 5.33333L8.88817 12Z" fill="#00447C"/>
</svg>