<svg width="24" height="18" viewBox="0 0 24 18" fill="none" xmlns="http://www.w3.org/2000/svg">
    <path d="M23.2 17.9996H0.8C0.587827 17.9996 0.384344 17.9134 0.234315 17.76C0.0842854 17.6066 0 17.3985 0 17.1815C0 16.9645 0.0842854 16.7564 0.234315 16.6029C0.384344 16.4495 0.587827 16.3633 0.8 16.3633H23.2C23.4122 16.3633 23.6157 16.4495 23.7657 16.6029C23.9157 16.7564 24 16.9645 24 17.1815C24 17.3985 23.9157 17.6066 23.7657 17.76C23.6157 17.9134 23.4122 17.9996 23.2 17.9996Z" fill="#00447C"/>
    <path d="M23.2 9.818H0.8C0.587827 9.818 0.384344 9.7318 0.234315 9.57837C0.0842854 9.42493 0 9.21682 0 8.99982C0 8.78283 0.0842854 8.57472 0.234315 8.42128C0.384344 8.26784 0.587827 8.18164 0.8 8.18164H23.2C23.4122 8.18164 23.6157 8.26784 23.7657 8.42128C23.9157 8.57472 24 8.78283 24 8.99982C24 9.21682 23.9157 9.42493 23.7657 9.57837C23.6157 9.7318 23.4122 9.818 23.2 9.818Z" fill="#00447C"/>
    <path d="M23.2 1.63636H0.8C0.587827 1.63636 0.384344 1.55016 0.234315 1.39672C0.0842854 1.24328 0 1.03518 0 0.818182C0 0.601187 0.0842854 0.393079 0.234315 0.23964C0.384344 0.0862012 0.587827 0 0.8 0H23.2C23.4122 0 23.6157 0.0862012 23.7657 0.23964C23.9157 0.393079 24 0.601187 24 0.818182C24 1.03518 23.9157 1.24328 23.7657 1.39672C23.6157 1.55016 23.4122 1.63636 23.2 1.63636Z" fill="#00447C"/>
</svg>