<svg width="18" height="18" viewBox="0 0 18 18" fill="none" xmlns="http://www.w3.org/2000/svg">
<path d="M1.17242 0.208668L17.5417 16.6314C17.6621 16.7612 17.7277 16.9327 17.7246 17.11C17.7215 17.2873 17.6499 17.4564 17.525 17.5818C17.4 17.7072 17.2314 17.779 17.0547 17.7821C16.878 17.7852 16.707 17.7194 16.5777 17.5986L11.9743 12.9819H2.99122V17.3157C2.991 17.4809 2.93121 17.6405 2.8229 17.7649C2.71458 17.8893 2.56506 17.9702 2.40193 17.9927L2.30917 18C2.14435 18 1.98511 17.9401 1.8609 17.8314C1.73668 17.7227 1.6559 17.5726 1.63348 17.4088L1.62712 17.3157V2.60001L0.208451 1.1767C0.143279 1.11361 0.0912837 1.03812 0.0554993 0.954656C0.019715 0.871188 0.00085797 0.781406 2.86024e-05 0.690548C-0.000800765 0.599691 0.0164141 0.509577 0.0506687 0.425465C0.0849234 0.341354 0.135532 0.264929 0.199541 0.20065C0.26355 0.136371 0.339678 0.0855247 0.423483 0.0510787C0.507289 0.0166328 0.597092 -0.000723314 0.687655 2.30908e-05C0.778217 0.000769495 0.867725 0.0196034 0.950954 0.055426C1.03418 0.0912486 1.10947 0.143342 1.17242 0.208668ZM3.55232 0.662119H17.3179C17.4446 0.662119 17.5688 0.697506 17.6765 0.764316C17.7843 0.831125 17.8713 0.926717 17.928 1.04038C17.9846 1.15404 18.0086 1.28129 17.9972 1.40785C17.9859 1.53442 17.9396 1.65531 17.8636 1.75697L14.0768 6.82339L17.8636 11.8871C17.9396 11.9887 17.9859 12.1096 17.9972 12.2362C18.0086 12.3628 17.9846 12.49 17.928 12.6037C17.8713 12.7173 17.7843 12.8129 17.6765 12.8797C17.5688 12.9465 17.4446 12.9819 17.3179 12.9819H15.8329L3.55232 0.663031V0.662119Z" fill="#005596"/>
</svg>