<svg width="24" height="24" viewBox="0 0 24 24" fill="none" xmlns="http://www.w3.org/2000/svg">
    <path d="M8.05459 3.16035C8.02851 2.94515 7.7644 2.85385 7.61115 3.0071L6.18624 4.43201L1.82675 0.0757777C1.77772 0.0272324 1.71152 0 1.64252 0C1.57353 0 1.50732 0.0272324 1.45829 0.0757777L0.0757777 1.45503C0.0272324 1.50406 0 1.57027 0 1.63926C0 1.70825 0.0272324 1.77446 0.0757777 1.82349L4.43527 6.18298L3.00384 7.61441C2.96936 7.64906 2.9453 7.69269 2.93439 7.74033C2.92348 7.78798 2.92616 7.83774 2.94213 7.88394C2.95809 7.93014 2.9867 7.97093 3.02471 8.00168C3.06271 8.03242 3.10858 8.05189 3.15709 8.05785L8.38066 8.67412C8.54695 8.69368 8.69042 8.55347 8.67086 8.38392L8.05459 3.16035ZM8.38392 15.3291L3.15709 15.9454C2.94189 15.9715 2.85059 16.2356 3.00384 16.3888L4.43527 17.8202L0.0757777 22.1732C0.0272324 22.2222 0 22.2885 0 22.3574C0 22.4264 0.0272324 22.4926 0.0757777 22.5417L1.45829 23.9209C1.55937 24.022 1.72567 24.022 1.82675 23.9209L6.18624 19.5647L7.61115 20.9896C7.64579 21.0241 7.68943 21.0481 7.73707 21.0591C7.78472 21.07 7.83448 21.0673 7.88068 21.0513C7.92688 21.0354 7.96767 21.0067 7.99842 20.9687C8.02916 20.9307 8.04863 20.8849 8.05459 20.8364L8.67086 15.616C8.69042 15.4498 8.55021 15.3095 8.38392 15.3291ZM15.616 8.67086L20.8429 8.05459C21.0581 8.02851 21.1494 7.7644 20.9961 7.61115L19.5647 6.18298L23.9242 1.82675C24.0253 1.72567 24.0253 1.55937 23.9242 1.45829L22.5417 0.0790381C22.4926 0.0304928 22.4264 0.00326085 22.3574 0.00326085C22.2885 0.00326085 22.2222 0.0304928 22.1732 0.0790381L17.8137 4.43201L16.3888 3.0071C16.3542 2.97262 16.3105 2.94856 16.2629 2.93765C16.2152 2.92674 16.1655 2.92942 16.1193 2.94539C16.0731 2.96135 16.0323 2.98997 16.0015 3.02797C15.9708 3.06597 15.9513 3.11184 15.9454 3.16035L15.3291 8.38066C15.3095 8.55021 15.4498 8.69042 15.616 8.67086ZM19.5647 17.817L20.9961 16.3856C21.0306 16.3509 21.0547 16.3073 21.0656 16.2596C21.0765 16.212 21.0738 16.1622 21.0578 16.116C21.0419 16.0698 21.0133 16.029 20.9753 15.9983C20.9373 15.9675 20.8914 15.9481 20.8429 15.9421L15.6193 15.3258C15.453 15.3063 15.3095 15.4465 15.3291 15.616L15.9454 20.8396C15.9715 21.0548 16.2356 21.1461 16.3888 20.9929L17.8137 19.568L22.1732 23.9242C22.2743 24.0253 22.4406 24.0253 22.5417 23.9242L23.9242 22.5449C24.0253 22.4439 24.0253 22.2776 23.9242 22.1765L19.5647 17.817Z"
          fill="#00447C"/>
</svg>