<svg width="22" height="21" viewBox="0 0 22 21" fill="none" xmlns="http://www.w3.org/2000/svg">
    <path d="M5.02497 1.02483C5.13764 0.912162 5.20093 0.759356 5.20093 0.600025C5.20093 0.440695 5.13764 0.287889 5.02497 0.175225C4.91231 0.0625614 4.7595 -0.000732422 4.60017 -0.000732422C4.44084 -0.000732422 4.28804 0.0625614 4.17537 0.175225L2.20017 2.15163L1.42497 1.37523C1.36919 1.31944 1.30296 1.27519 1.23007 1.245C1.15718 1.21481 1.07906 1.19927 1.00017 1.19927C0.921279 1.19927 0.843159 1.21481 0.770272 1.245C0.697385 1.27519 0.631157 1.31944 0.575372 1.37523C0.519586 1.43101 0.475335 1.49724 0.445144 1.57013C0.414953 1.64301 0.399414 1.72113 0.399414 1.80003C0.399414 1.87892 0.414953 1.95704 0.445144 2.02993C0.475335 2.10281 0.519586 2.16904 0.575372 2.22483L1.77537 3.42483C1.83111 3.4807 1.89732 3.52503 1.97021 3.55528C2.04311 3.58553 2.12125 3.6011 2.20017 3.6011C2.27909 3.6011 2.35724 3.58553 2.43013 3.55528C2.50303 3.52503 2.56924 3.4807 2.62497 3.42483L5.02497 1.02483ZM8.50017 1.20003C8.26148 1.20003 8.03256 1.29485 7.86378 1.46363C7.69499 1.63241 7.60017 1.86133 7.60017 2.10003C7.60017 2.33872 7.69499 2.56764 7.86378 2.73642C8.03256 2.9052 8.26148 3.00003 8.50017 3.00003H18.7002C18.9389 3.00003 19.1678 2.9052 19.3366 2.73642C19.5054 2.56764 19.6002 2.33872 19.6002 2.10003C19.6002 1.86133 19.5054 1.63241 19.3366 1.46363C19.1678 1.29485 18.9389 1.20003 18.7002 1.20003H8.50017ZM8.50017 7.20002C8.26148 7.20002 8.03256 7.29485 7.86378 7.46363C7.69499 7.63241 7.60017 7.86133 7.60017 8.10002C7.60017 8.33872 7.69499 8.56764 7.86378 8.73642C8.03256 8.9052 8.26148 9.00002 8.50017 9.00002H18.7002C18.9389 9.00002 19.1678 8.9052 19.3366 8.73642C19.5054 8.56764 19.6002 8.33872 19.6002 8.10002C19.6002 7.86133 19.5054 7.63241 19.3366 7.46363C19.1678 7.29485 18.9389 7.20002 18.7002 7.20002H8.50017ZM10.0266 15C10.0821 14.383 10.2247 13.777 10.4502 13.2H8.50017C8.26148 13.2 8.03256 13.2948 7.86378 13.4636C7.69499 13.6324 7.60017 13.8613 7.60017 14.1C7.60017 14.3387 7.69499 14.5676 7.86378 14.7364C8.03256 14.9052 8.26148 15 8.50017 15H10.0266ZM5.02497 7.62482C5.08076 7.56904 5.12501 7.50281 5.1552 7.42993C5.18539 7.35704 5.20093 7.27892 5.20093 7.20002C5.20093 7.12113 5.18539 7.04301 5.1552 6.97012C5.12501 6.89724 5.08076 6.83101 5.02497 6.77522C4.96919 6.71944 4.90296 6.67519 4.83007 6.645C4.75719 6.61481 4.67906 6.59927 4.60017 6.59927C4.52128 6.59927 4.44316 6.61481 4.37027 6.645C4.29738 6.67519 4.23116 6.71944 4.17537 6.77522L2.20017 8.75162L1.42497 7.97522C1.31231 7.86256 1.1595 7.79927 1.00017 7.79927C0.840841 7.79927 0.688036 7.86256 0.575372 7.97522C0.462708 8.08789 0.399414 8.24069 0.399414 8.40002C0.399414 8.55936 0.462708 8.71216 0.575372 8.82482L1.77537 10.0248C1.83111 10.0807 1.89732 10.125 1.97021 10.1553C2.04311 10.1855 2.12125 10.2011 2.20017 10.2011C2.27909 10.2011 2.35724 10.1855 2.43013 10.1553C2.50303 10.125 2.56924 10.0807 2.62497 10.0248L5.02497 7.62482ZM5.02497 12.7752C5.08085 12.831 5.12518 12.8972 5.15543 12.9701C5.18568 13.043 5.20124 13.1211 5.20124 13.2C5.20124 13.2789 5.18568 13.3571 5.15543 13.43C5.12518 13.5029 5.08085 13.5691 5.02497 13.6248L2.62497 16.0248C2.56924 16.0807 2.50303 16.125 2.43013 16.1553C2.35724 16.1855 2.27909 16.2011 2.20017 16.2011C2.12125 16.2011 2.04311 16.1855 1.97021 16.1553C1.89732 16.125 1.83111 16.0807 1.77537 16.0248L0.575372 14.8248C0.462708 14.7122 0.399414 14.5594 0.399414 14.4C0.399414 14.2407 0.462708 14.0879 0.575372 13.9752C0.688036 13.8626 0.840841 13.7993 1.00017 13.7993C1.1595 13.7993 1.31231 13.8626 1.42497 13.9752L2.20017 14.7516L4.17537 12.7752C4.23111 12.7193 4.29732 12.675 4.37021 12.6448C4.44311 12.6145 4.52125 12.599 4.60017 12.599C4.67909 12.599 4.75724 12.6145 4.83013 12.6448C4.90303 12.675 4.96924 12.7193 5.02497 12.7752ZM22.0002 15.6C22.0002 17.0322 21.4312 18.4057 20.4185 19.4184C19.4059 20.4311 18.0323 21 16.6002 21C15.168 21 13.7945 20.4311 12.7818 19.4184C11.7691 18.4057 11.2002 17.0322 11.2002 15.6C11.2002 14.1679 11.7691 12.7943 12.7818 11.7816C13.7945 10.769 15.168 10.2 16.6002 10.2C18.0323 10.2 19.4059 10.769 20.4185 11.7816C21.4312 12.7943 22.0002 14.1679 22.0002 15.6V15.6ZM17.2002 13.2C17.2002 13.0409 17.137 12.8883 17.0244 12.7758C16.9119 12.6632 16.7593 12.6 16.6002 12.6C16.441 12.6 16.2884 12.6632 16.1759 12.7758C16.0634 12.8883 16.0002 13.0409 16.0002 13.2V15H14.2002C14.041 15 13.8884 15.0632 13.7759 15.1758C13.6634 15.2883 13.6002 15.4409 13.6002 15.6C13.6002 15.7592 13.6634 15.9118 13.7759 16.0243C13.8884 16.1368 14.041 16.2 14.2002 16.2H16.0002V18C16.0002 18.1592 16.0634 18.3118 16.1759 18.4243C16.2884 18.5368 16.441 18.6 16.6002 18.6C16.7593 18.6 16.9119 18.5368 17.0244 18.4243C17.137 18.3118 17.2002 18.1592 17.2002 18V16.2H19.0002C19.1593 16.2 19.3119 16.1368 19.4244 16.0243C19.537 15.9118 19.6002 15.7592 19.6002 15.6C19.6002 15.4409 19.537 15.2883 19.4244 15.1758C19.3119 15.0632 19.1593 15 19.0002 15H17.2002V13.2Z" fill="#005596"/>
</svg>