<svg width="40" height="24" viewBox="0 0 40 24" fill="none" xmlns="http://www.w3.org/2000/svg">
<path d="M-0.000190735 2.66667V21.3333C-0.000190735 22.0406 0.468021 22.7189 1.30145 23.219C2.13488 23.719 3.26525 24 4.44389 24H35.5525C36.7311 24 37.8615 23.719 38.6949 23.219C39.5284 22.7189 39.9966 22.0406 39.9966 21.3333V2.66667C39.9966 1.95942 39.5284 1.28115 38.6949 0.781048C37.8615 0.280951 36.7311 0 35.5525 0L4.44389 0C3.26525 0 2.13488 0.280951 1.30145 0.781048C0.468021 1.28115 -0.000190735 1.95942 -0.000190735 2.66667ZM31.1084 12L19.9982 18.6667V13.3333H8.88798V10.6667H19.9982V5.33333L31.1084 12Z" fill="#00447C"/>
</svg>
