<svg width="21" height="22" viewBox="0 0 21 22" fill="none" xmlns="http://www.w3.org/2000/svg">
<path d="M20.001 18.7777H6.66764M0.000976562 3.22217H4.44542H0.000976562ZM20.001 3.22217H8.88987H20.001ZM0.000976562 10.9999H13.3343H0.000976562ZM20.001 10.9999H17.7788H20.001ZM0.000976562 18.7777H2.2232H0.000976562Z" stroke="#00447C" stroke-width="2" stroke-linecap="round"/>
<path d="M6.66753 5.44444C7.89483 5.44444 8.88976 4.44952 8.88976 3.22222C8.88976 1.99492 7.89483 1 6.66753 1C5.44024 1 4.44531 1.99492 4.44531 3.22222C4.44531 4.44952 5.44024 5.44444 6.66753 5.44444Z" stroke="#00447C" stroke-width="2" stroke-linecap="round"/>
<path d="M15.5562 13.2223C16.7835 13.2223 17.7784 12.2274 17.7784 11.0001C17.7784 9.77275 16.7835 8.77783 15.5562 8.77783C14.3289 8.77783 13.334 9.77275 13.334 11.0001C13.334 12.2274 14.3289 13.2223 15.5562 13.2223Z" stroke="#00447C" stroke-width="2" stroke-linecap="round"/>
<path d="M4.44488 21.0001C5.67218 21.0001 6.6671 20.0052 6.6671 18.7779C6.6671 17.5506 5.67218 16.5557 4.44488 16.5557C3.21758 16.5557 2.22266 17.5506 2.22266 18.7779C2.22266 20.0052 3.21758 21.0001 4.44488 21.0001Z" stroke="#00447C" stroke-width="2" stroke-linecap="round"/>
</svg>