<svg width="889" height="168" viewBox="0 0 889 168" fill="none" xmlns="http://www.w3.org/2000/svg">
    <path d="M45.1216 78.4734C29.2698 71.3553 18.5099 58.7041 15.3716 45.2137C13.8025 37.5982 16.5885 32.5937 18.3817 29.7961C20.3672 26.781 22.769 26.5945 22.769 26.5945C22.769 26.5945 20.3031 25.4444 17.0046 24.9781C12.8736 24.3876 7.46149 24.8225 4.03495 29.8894C1.50503 35.671 0.0319998 42.0432 0 48.7262C0.0650686 61.5639 5.0597 76.4219 20.3031 88.2027C24.5303 91.2489 29.2698 93.6734 34.3937 95.3209C35.0983 95.5375 35.8347 95.7252 36.5072 95.9115C38.7489 96.502 40.9586 96.9373 43.0722 97.2793C43.2326 97.2793 43.3924 97.3109 43.5525 97.3424C44.193 97.4056 44.8335 97.4665 45.4739 97.5297C46.4667 97.6222 47.4274 97.7169 48.3882 97.7462C48.8685 97.7462 49.3487 97.7778 49.8291 97.7778H50.3416C51.2382 97.7778 52.1669 97.7462 53.0956 97.7146H53.1282C54.0568 97.6515 54.9857 97.559 55.9143 97.4663C56.0096 97.4663 56.1071 97.4347 56.2345 97.4347C57.003 97.3422 57.7396 97.2182 58.5082 97.0925C58.9564 97.0294 59.405 96.9369 59.8212 96.876C59.9165 96.8444 59.9815 96.8444 60.0772 96.8128C68.4995 95.1342 75.4808 91.4353 80.8608 87.612C83.9992 85.2496 86.8172 82.5764 89.2831 79.5923C76.9218 85.3429 60.4936 85.374 45.1222 78.4733" fill="#14549C"/>
    <path d="M18.1248 21.5589C26.7713 10.9283 40.0613 3.9655 55.1126 3.9655C66.2249 3.9655 76.4405 7.7266 84.5105 13.9434C75.5438 5.79948 63.4708 0.794922 50.1808 0.794922C32.6317 0.794922 17.1962 9.52951 8.22949 22.8022C10.7594 21.6832 14.4101 20.9373 18.1248 21.5589" fill="#14549C"/>
    <path d="M47.6193 74.8364C53.864 78.2867 60.7492 80.2139 67.5703 80.8355C70.4204 80.1521 73.1744 79.1571 75.5762 77.8205C85.2475 71.9767 113.749 33.5881 113.749 33.5881C113.749 33.5881 98.2171 30.4797 91.4921 35.2667C84.7351 40.0536 79.6753 47.6382 72.2137 55.8443C64.7521 64.0193 61.4537 69.1793 54.8568 70.7956C49.9571 72.008 45.3135 71.7903 41.1504 70.888C43.1359 72.2247 45.2816 73.5301 47.6193 74.8357" fill="#14549C"/>
    <path d="M93.6999 76.546C99.6884 72.3186 113.619 53.8859 113.619 53.8859C113.619 53.8859 102.923 48.4462 93.2195 53.8859C83.4843 59.3566 83.7725 60.7555 74.1333 68.4643C64.4941 76.1731 57.2887 77.0434 51.9728 76.6393C51.6525 76.6393 51.3964 76.5761 51.0762 76.5468C64.9746 82.8257 83.1001 83.8515 93.7 76.5468" fill="#EE2121"/>
    <path d="M113.59 0.794875C113.59 0.794875 98.2825 -3.27711 86.0173 7.01166C77.2107 14.4096 58.1884 64.0505 43.2652 66.8792C40.3511 67.4075 38.0134 67.4697 36.124 67.2525C36.1566 67.2841 36.189 67.3157 36.2192 67.3157C38.7171 67.5322 41.6314 67.4713 44.9939 66.8183C59.9491 64.0207 79.7078 18.2032 88.8346 11.1471C97.9935 4.15322 108.946 5.92504 108.946 5.92504L99.7228 21.7467L113.59 0.794875Z" fill="#14549C"/>
    <path d="M150.607 8.59668L136.389 30.3553H164.794L156.788 90.3783H184.777L192.783 30.3553H215.808L218.562 8.59668H150.607Z" fill="#14549C"/>
    <path d="M804.508 8.13062L801.754 29.8894H826.508L818.438 90.2853H846.395L854.465 29.8894H874.672L888.891 8.13062H804.508Z" fill="#14549C"/>
    <path d="M716.341 29.6096L719.095 8.19287H650.148L639.388 90.0677H708.303L711.025 68.6199H670.227L671.7 58.3933L712.37 58.2377L714.836 39.7116L674.134 39.8673L675.607 29.6095L716.341 29.6096Z" fill="#14549C"/>
    <path d="M370.644 8.50365H329.717C326.931 8.50365 324.145 10.2443 323.313 12.5445L294.011 90.3785H322.576L327.38 76.4529L354.664 76.1419L356.169 90.3783H384.767L375.864 12.4821C375.671 10.1197 373.526 8.50342 370.644 8.50342V8.50365ZM335.418 55.6887L344.128 33.1218H349.732L352.326 55.6887H335.418Z" fill="#14549C"/>
    <path d="M442.858 45.5868L430.849 8.50366H402.7L391.94 90.3785H420.089L424.701 55.689L437.03 90.3785H466.716L477.508 8.50366H447.79L442.858 45.5868Z" fill="#14549C"/>
    <path d="M717.465 90.0677H745.582L749.777 58.3933L778.695 58.2377L781.032 39.7117L752.211 39.8673L753.684 29.6096H783.082L797.14 8.19287H728.225L717.465 90.0677Z" fill="#14549C"/>
    <path d="M295.42 13.1972C292.826 10.2754 288.727 8.59685 284.179 8.59685L227.945 8.53369L220.323 76.6384L218.338 90.3774H246.551L249.177 70.9501H255.005L260.674 90.3774H286.933L280.945 70.2662C287.574 68.4635 292.954 63.148 293.818 56.9312L298.174 22.6147C298.654 19.0711 297.693 15.7452 295.42 13.1962L295.42 13.1972ZM254.045 34.24L254.621 30.1991H269.384L266.886 47.1708C266.726 48.321 265.605 49.2535 264.388 49.2535H251.931L254.045 34.24Z" fill="#14549C"/>
    <path d="M537.329 8.50366H506.907C500.982 8.50366 495.026 10.7106 490.574 14.565C486.668 17.9531 484.202 22.3048 483.625 26.9053C483.625 26.9053 482.889 32.3139 482.248 37.536C481.319 44.7164 483.465 49.0992 490.638 51.8967C504.857 57.4297 522.983 63.8018 522.983 63.8018C522.887 64.6412 522.822 65.1695 522.822 65.294L522.566 66.9724L506.586 66.9408L507.035 61.812H478.95L477.637 71.8831C476.484 82.0786 484.81 90.378 496.211 90.378H526.666C532.526 90.378 538.45 88.1711 542.902 84.2856C546.841 80.8664 549.243 76.2659 549.787 71.8831C549.787 71.8831 551.132 61.6255 551.356 59.8226C552.189 53.295 550.043 49.5338 542.197 46.7052C534.351 43.8455 510.622 35.1731 510.622 35.1731C510.91 33.3081 511.07 32.0336 511.102 31.785L511.295 30.0131L513.088 30.0447C513.088 30.0447 524.297 30.1079 525.802 30.1079H527.595L526.794 35.2989H554.751L556.192 23.9844C557.601 12.5455 546.905 8.50463 537.33 8.50463" fill="#14549C"/>
    <path d="M611.881 8.50366L606.949 45.5868L595.228 8.50366H567.079L556.319 90.4096H584.468L589.08 55.689L601.121 90.4096H630.839L641.599 8.50366H611.881Z" fill="#14549C"/>
    <path d="M162.995 125.836C162.925 127.777 162.856 129.666 162.787 131.504C162.717 133.306 162.613 135.074 162.475 136.808C162.336 138.506 162.128 140.17 161.851 141.8C161.573 143.429 161.192 145.024 160.707 146.584C160.221 148.144 159.615 149.617 158.887 151.004C158.193 152.356 157.309 153.552 156.235 154.592C155.195 155.597 153.947 156.412 152.491 157.036C151.069 157.66 149.388 158.006 147.447 158.076L146.875 153.708C149.301 153.43 151.173 152.668 152.491 151.42C153.843 150.172 154.952 148.265 155.819 145.7C156.789 142.788 157.396 139.286 157.639 135.196C157.916 131.07 158.055 126.512 158.055 121.52H178.491V157.556H173.447V125.836H162.995ZM210.368 130.516V157.556H205.688V136.964C204.648 138.281 203.504 139.824 202.256 141.592C201.008 143.36 199.76 145.197 198.512 147.104C197.264 148.976 196.068 150.83 194.924 152.668C193.78 154.505 192.792 156.134 191.96 157.556H187.644V130.516H192.324V149.964C193.226 148.473 194.248 146.844 195.392 145.076C196.536 143.273 197.715 141.505 198.928 139.772C200.176 138.004 201.407 136.322 202.62 134.728C203.868 133.098 205.03 131.694 206.104 130.516H210.368ZM222.26 130.516V138.472C222.26 140.517 222.78 141.956 223.82 142.788C224.86 143.585 226.281 143.984 228.084 143.984C229.401 143.984 230.493 143.914 231.36 143.776C232.261 143.637 233.058 143.481 233.752 143.308V130.516H238.588V157.556H233.752V147.052C233.474 147.121 233.11 147.208 232.66 147.312C232.209 147.416 231.689 147.52 231.1 147.624C230.545 147.693 229.956 147.762 229.332 147.832C228.708 147.901 228.101 147.936 227.512 147.936C226.021 147.936 224.652 147.78 223.404 147.468C222.19 147.156 221.133 146.636 220.232 145.908C219.365 145.18 218.672 144.226 218.152 143.048C217.666 141.834 217.424 140.326 217.424 138.524V130.516H222.26ZM269.59 157.556H264.754V145.596H252.274V157.556H247.438V130.516H252.274V141.54H264.754V130.516H269.59V157.556ZM288.359 144.192C287.423 144.192 286.504 144.226 285.603 144.296C284.736 144.33 283.956 144.434 283.263 144.608V153.916C283.471 153.95 283.766 153.985 284.147 154.02C284.563 154.054 284.996 154.089 285.447 154.124C285.932 154.124 286.418 154.141 286.903 154.176C287.388 154.176 287.822 154.176 288.203 154.176C290.318 154.176 291.947 153.777 293.091 152.98C294.235 152.182 294.807 150.9 294.807 149.132C294.807 148.265 294.616 147.52 294.235 146.896C293.888 146.272 293.403 145.769 292.779 145.388C292.19 144.972 291.514 144.677 290.751 144.504C289.988 144.296 289.191 144.192 288.359 144.192ZM278.427 130.516H283.263V140.864C283.852 140.725 284.702 140.586 285.811 140.448C286.955 140.309 288.047 140.24 289.087 140.24C290.508 140.24 291.86 140.413 293.143 140.76C294.426 141.072 295.552 141.592 296.523 142.32C297.494 143.013 298.256 143.932 298.811 145.076C299.4 146.185 299.695 147.52 299.695 149.08C299.695 150.709 299.418 152.096 298.863 153.24C298.308 154.384 297.528 155.32 296.523 156.048C295.518 156.776 294.304 157.296 292.883 157.608C291.462 157.954 289.902 158.128 288.203 158.128C286.574 158.128 284.927 158.024 283.263 157.816C281.599 157.642 279.987 157.365 278.427 156.984V130.516ZM309.523 157.556H304.687V130.516H309.523V157.556ZM341.077 130.516V157.556H336.397V136.964C335.357 138.281 334.213 139.824 332.965 141.592C331.717 143.36 330.469 145.197 329.221 147.104C327.973 148.976 326.777 150.83 325.633 152.668C324.489 154.505 323.501 156.134 322.669 157.556H318.353V130.516H323.033V149.964C323.935 148.473 324.957 146.844 326.101 145.076C327.245 143.273 328.424 141.505 329.637 139.772C330.885 138.004 332.116 136.322 333.329 134.728C334.577 133.098 335.739 131.694 336.813 130.516H341.077ZM329.741 126.148C327.557 126.148 325.772 125.593 324.385 124.484C323.033 123.374 322.219 121.832 321.941 119.856L325.633 118.868C325.911 119.977 326.379 120.878 327.037 121.572C327.696 122.265 328.597 122.612 329.741 122.612C330.885 122.612 331.787 122.265 332.445 121.572C333.104 120.878 333.572 119.977 333.849 118.868L337.489 119.856C337.212 121.832 336.397 123.374 335.045 124.484C333.693 125.593 331.925 126.148 329.741 126.148ZM372.336 142.84C373.411 143.602 374.572 144.573 375.82 145.752C377.068 146.896 378.281 148.144 379.46 149.496C380.673 150.848 381.8 152.234 382.84 153.656C383.88 155.042 384.764 156.342 385.492 157.556H379.772C379.009 156.377 378.108 155.181 377.068 153.968C376.063 152.72 375.005 151.524 373.896 150.38C372.787 149.236 371.66 148.178 370.516 147.208C369.372 146.237 368.297 145.422 367.292 144.764V157.556H362.456V130.516H367.292V142.112C368.124 141.314 369.077 140.396 370.152 139.356C371.227 138.281 372.301 137.206 373.376 136.132C374.485 135.022 375.508 133.982 376.444 133.012C377.38 132.006 378.143 131.174 378.732 130.516H384.348C383.585 131.348 382.684 132.301 381.644 133.376C380.639 134.416 379.581 135.49 378.472 136.6C377.397 137.709 376.323 138.818 375.248 139.928C374.173 141.002 373.203 141.973 372.336 142.84ZM400.058 154.072C401.202 154.072 402.207 154.054 403.074 154.02C403.975 153.95 404.72 153.846 405.31 153.708V145.648C404.963 145.474 404.391 145.336 403.594 145.232C402.831 145.093 401.895 145.024 400.786 145.024C400.058 145.024 399.278 145.076 398.446 145.18C397.648 145.284 396.903 145.509 396.21 145.856C395.551 146.168 394.996 146.618 394.546 147.208C394.095 147.762 393.87 148.508 393.87 149.444C393.87 151.177 394.424 152.39 395.534 153.084C396.643 153.742 398.151 154.072 400.058 154.072ZM399.642 129.84C401.583 129.84 403.212 130.1 404.53 130.62C405.882 131.105 406.956 131.816 407.754 132.752C408.586 133.653 409.175 134.745 409.522 136.028C409.868 137.276 410.042 138.662 410.042 140.188V157.088C409.626 157.157 409.036 157.261 408.274 157.4C407.546 157.504 406.714 157.608 405.778 157.712C404.842 157.816 403.819 157.902 402.71 157.972C401.635 158.076 400.56 158.128 399.486 158.128C397.96 158.128 396.556 157.972 395.274 157.66C393.991 157.348 392.882 156.862 391.946 156.204C391.01 155.51 390.282 154.609 389.762 153.5C389.242 152.39 388.982 151.056 388.982 149.496C388.982 148.005 389.276 146.722 389.866 145.648C390.49 144.573 391.322 143.706 392.362 143.048C393.402 142.389 394.615 141.904 396.002 141.592C397.388 141.28 398.844 141.124 400.37 141.124C400.855 141.124 401.358 141.158 401.878 141.228C402.398 141.262 402.883 141.332 403.334 141.436C403.819 141.505 404.235 141.574 404.582 141.644C404.928 141.713 405.171 141.765 405.31 141.8V140.448C405.31 139.65 405.223 138.87 405.05 138.108C404.876 137.31 404.564 136.617 404.114 136.028C403.663 135.404 403.039 134.918 402.242 134.572C401.479 134.19 400.474 134 399.226 134C397.631 134 396.227 134.121 395.014 134.364C393.835 134.572 392.951 134.797 392.362 135.04L391.79 131.036C392.414 130.758 393.454 130.498 394.91 130.256C396.366 129.978 397.943 129.84 399.642 129.84ZM422.961 133.636C424.036 132.769 425.284 132.11 426.705 131.66C428.161 131.174 429.548 130.932 430.865 130.932C434.748 130.932 437.677 132.128 439.653 134.52C441.664 136.877 442.669 140.17 442.669 144.4C442.669 146.202 442.427 147.936 441.941 149.6C441.456 151.264 440.693 152.737 439.653 154.02C438.648 155.302 437.365 156.325 435.805 157.088C434.245 157.85 432.391 158.232 430.241 158.232C427.78 158.232 425.735 157.781 424.105 156.88C422.476 155.978 421.176 154.748 420.205 153.188C419.269 151.628 418.611 149.808 418.229 147.728C417.848 145.648 417.657 143.446 417.657 141.124C417.657 138.108 417.865 135.3 418.281 132.7C418.732 130.1 419.529 127.812 420.673 125.836C421.817 123.86 423.395 122.23 425.405 120.948C427.451 119.63 430.068 118.746 433.257 118.296C434.193 118.157 435.008 118.053 435.701 117.984C436.429 117.88 437.053 117.793 437.573 117.724C438.128 117.654 438.631 117.585 439.081 117.516C439.532 117.412 440 117.308 440.485 117.204L441.005 121.572C440.763 121.641 440.503 121.693 440.225 121.728C439.983 121.762 439.619 121.814 439.133 121.884C438.683 121.953 438.059 122.04 437.261 122.144C436.499 122.248 435.493 122.369 434.245 122.508C430.813 122.889 428.179 123.929 426.341 125.628C424.504 127.326 423.377 129.996 422.961 133.636ZM422.649 141.904C422.649 143.533 422.753 145.076 422.961 146.532C423.204 147.988 423.603 149.27 424.157 150.38C424.747 151.489 425.527 152.373 426.497 153.032C427.468 153.656 428.716 153.968 430.241 153.968C431.559 153.968 432.685 153.725 433.621 153.24C434.557 152.72 435.32 152.026 435.909 151.16C436.499 150.293 436.932 149.288 437.209 148.144C437.487 146.965 437.625 145.717 437.625 144.4C437.625 143.221 437.504 142.077 437.261 140.968C437.053 139.858 436.655 138.87 436.065 138.004C435.476 137.137 434.679 136.444 433.673 135.924C432.703 135.404 431.472 135.144 429.981 135.144C428.525 135.144 427.121 135.456 425.769 136.08C424.452 136.704 423.429 137.466 422.701 138.368C422.667 138.749 422.649 139.286 422.649 139.98C422.649 140.673 422.649 141.314 422.649 141.904ZM472.763 130.516V157.556H468.083V136.964C467.043 138.281 465.899 139.824 464.651 141.592C463.403 143.36 462.155 145.197 460.907 147.104C459.659 148.976 458.463 150.83 457.319 152.668C456.175 154.505 455.187 156.134 454.355 157.556H450.039V130.516H454.719V149.964C455.621 148.473 456.643 146.844 457.787 145.076C458.931 143.273 460.11 141.505 461.323 139.772C462.571 138.004 463.802 136.322 465.015 134.728C466.263 133.098 467.425 131.694 468.499 130.516H472.763ZM503.739 157.556H498.903V145.596H486.423V157.556H481.587V130.516H486.423V141.54H498.903V130.516H503.739V157.556ZM511.067 144.088C511.067 141.696 511.414 139.616 512.107 137.848C512.801 136.045 513.719 134.554 514.863 133.376C516.007 132.197 517.325 131.313 518.815 130.724C520.306 130.134 521.831 129.84 523.391 129.84C527.031 129.84 529.822 130.984 531.763 133.272C533.705 135.525 534.675 138.974 534.675 143.62C534.675 143.828 534.675 144.105 534.675 144.452C534.675 144.764 534.658 145.058 534.623 145.336H516.111C516.319 148.144 517.134 150.276 518.555 151.732C519.977 153.188 522.195 153.916 525.211 153.916C526.91 153.916 528.331 153.777 529.475 153.5C530.654 153.188 531.538 152.893 532.127 152.616L532.803 156.672C532.214 156.984 531.174 157.313 529.683 157.66C528.227 158.006 526.563 158.18 524.691 158.18C522.334 158.18 520.289 157.833 518.555 157.14C516.857 156.412 515.453 155.424 514.343 154.176C513.234 152.928 512.402 151.454 511.847 149.756C511.327 148.022 511.067 146.133 511.067 144.088ZM529.631 141.436C529.666 139.252 529.111 137.466 527.967 136.08C526.858 134.658 525.315 133.948 523.339 133.948C522.23 133.948 521.242 134.173 520.375 134.624C519.543 135.04 518.833 135.594 518.243 136.288C517.654 136.981 517.186 137.778 516.839 138.68C516.527 139.581 516.319 140.5 516.215 141.436H529.631ZM561.226 130.516V134.572H552.438V157.556H547.602V134.572H538.814V130.516H561.226ZM589.168 142.84C590.242 143.602 591.404 144.573 592.652 145.752C593.9 146.896 595.113 148.144 596.292 149.496C597.505 150.848 598.632 152.234 599.672 153.656C600.712 155.042 601.596 156.342 602.324 157.556H596.604C595.841 156.377 594.94 155.181 593.9 153.968C592.894 152.72 591.837 151.524 590.728 150.38C589.618 149.236 588.492 148.178 587.348 147.208C586.204 146.237 585.129 145.422 584.124 144.764V157.556H579.288V130.516H584.124V142.112C584.956 141.314 585.909 140.396 586.984 139.356C588.058 138.281 589.133 137.206 590.208 136.132C591.317 135.022 592.34 133.982 593.276 133.012C594.212 132.006 594.974 131.174 595.564 130.516H601.18C600.417 131.348 599.516 132.301 598.476 133.376C597.47 134.416 596.413 135.49 595.304 136.6C594.229 137.709 593.154 138.818 592.08 139.928C591.005 141.002 590.034 141.973 589.168 142.84ZM630.082 144.036C630.082 146.185 629.77 148.126 629.146 149.86C628.522 151.593 627.638 153.084 626.494 154.332C625.385 155.58 624.05 156.55 622.49 157.244C620.93 157.902 619.231 158.232 617.394 158.232C615.557 158.232 613.858 157.902 612.298 157.244C610.738 156.55 609.386 155.58 608.242 154.332C607.133 153.084 606.266 151.593 605.642 149.86C605.018 148.126 604.706 146.185 604.706 144.036C604.706 141.921 605.018 139.997 605.642 138.264C606.266 136.496 607.133 134.988 608.242 133.74C609.386 132.492 610.738 131.538 612.298 130.88C613.858 130.186 615.557 129.84 617.394 129.84C619.231 129.84 620.93 130.186 622.49 130.88C624.05 131.538 625.385 132.492 626.494 133.74C627.638 134.988 628.522 136.496 629.146 138.264C629.77 139.997 630.082 141.921 630.082 144.036ZM625.038 144.036C625.038 140.985 624.345 138.576 622.958 136.808C621.606 135.005 619.751 134.104 617.394 134.104C615.037 134.104 613.165 135.005 611.778 136.808C610.426 138.576 609.75 140.985 609.75 144.036C609.75 147.086 610.426 149.513 611.778 151.316C613.165 153.084 615.037 153.968 617.394 153.968C619.751 153.968 621.606 153.084 622.958 151.316C624.345 149.513 625.038 147.086 625.038 144.036ZM659.558 157.556H654.722V145.596H642.242V157.556H637.406V130.516H642.242V141.54H654.722V130.516H659.558V157.556ZM687.479 130.516V134.572H678.691V157.556H673.855V134.572H665.067V130.516H687.479ZM711.757 144.088C711.757 140.933 710.977 138.506 709.417 136.808C707.857 135.109 705.777 134.26 703.177 134.26C701.721 134.26 700.577 134.312 699.745 134.416C698.948 134.52 698.306 134.641 697.821 134.78V151.836C698.41 152.321 699.26 152.789 700.369 153.24C701.478 153.69 702.692 153.916 704.009 153.916C705.396 153.916 706.574 153.673 707.545 153.188C708.55 152.668 709.365 151.974 709.989 151.108C710.613 150.206 711.064 149.166 711.341 147.988C711.618 146.774 711.757 145.474 711.757 144.088ZM716.801 144.088C716.801 146.133 716.524 148.022 715.969 149.756C715.449 151.489 714.669 152.98 713.629 154.228C712.589 155.476 711.306 156.446 709.781 157.14C708.29 157.833 706.574 158.18 704.633 158.18C703.073 158.18 701.686 157.972 700.473 157.556C699.294 157.14 698.41 156.741 697.821 156.36V167.176H692.985V131.348C694.129 131.07 695.55 130.776 697.249 130.464C698.982 130.117 700.976 129.944 703.229 129.944C705.309 129.944 707.181 130.273 708.845 130.932C710.509 131.59 711.93 132.526 713.109 133.74C714.288 134.953 715.189 136.444 715.813 138.212C716.472 139.945 716.801 141.904 716.801 144.088ZM733.278 154.072C734.422 154.072 735.427 154.054 736.294 154.02C737.195 153.95 737.941 153.846 738.53 153.708V145.648C738.183 145.474 737.611 145.336 736.814 145.232C736.051 145.093 735.115 145.024 734.006 145.024C733.278 145.024 732.498 145.076 731.666 145.18C730.869 145.284 730.123 145.509 729.43 145.856C728.771 146.168 728.217 146.618 727.766 147.208C727.315 147.762 727.09 148.508 727.09 149.444C727.09 151.177 727.645 152.39 728.754 153.084C729.863 153.742 731.371 154.072 733.278 154.072ZM732.862 129.84C734.803 129.84 736.433 130.1 737.75 130.62C739.102 131.105 740.177 131.816 740.974 132.752C741.806 133.653 742.395 134.745 742.742 136.028C743.089 137.276 743.262 138.662 743.262 140.188V157.088C742.846 157.157 742.257 157.261 741.494 157.4C740.766 157.504 739.934 157.608 738.998 157.712C738.062 157.816 737.039 157.902 735.93 157.972C734.855 158.076 733.781 158.128 732.706 158.128C731.181 158.128 729.777 157.972 728.494 157.66C727.211 157.348 726.102 156.862 725.166 156.204C724.23 155.51 723.502 154.609 722.982 153.5C722.462 152.39 722.202 151.056 722.202 149.496C722.202 148.005 722.497 146.722 723.086 145.648C723.71 144.573 724.542 143.706 725.582 143.048C726.622 142.389 727.835 141.904 729.222 141.592C730.609 141.28 732.065 141.124 733.59 141.124C734.075 141.124 734.578 141.158 735.098 141.228C735.618 141.262 736.103 141.332 736.554 141.436C737.039 141.505 737.455 141.574 737.802 141.644C738.149 141.713 738.391 141.765 738.53 141.8V140.448C738.53 139.65 738.443 138.87 738.27 138.108C738.097 137.31 737.785 136.617 737.334 136.028C736.883 135.404 736.259 134.918 735.462 134.572C734.699 134.19 733.694 134 732.446 134C730.851 134 729.447 134.121 728.234 134.364C727.055 134.572 726.171 134.797 725.582 135.04L725.01 131.036C725.634 130.758 726.674 130.498 728.13 130.256C729.586 129.978 731.163 129.84 732.862 129.84ZM768.558 134.572H756.65V157.556H751.814V130.516H768.558V134.572ZM772.56 144.088C772.56 141.696 772.907 139.616 773.6 137.848C774.294 136.045 775.212 134.554 776.356 133.376C777.5 132.197 778.818 131.313 780.308 130.724C781.799 130.134 783.324 129.84 784.884 129.84C788.524 129.84 791.315 130.984 793.256 133.272C795.198 135.525 796.168 138.974 796.168 143.62C796.168 143.828 796.168 144.105 796.168 144.452C796.168 144.764 796.151 145.058 796.116 145.336H777.604C777.812 148.144 778.627 150.276 780.048 151.732C781.47 153.188 783.688 153.916 786.704 153.916C788.403 153.916 789.824 153.777 790.968 153.5C792.147 153.188 793.031 152.893 793.62 152.616L794.296 156.672C793.707 156.984 792.667 157.313 791.176 157.66C789.72 158.006 788.056 158.18 786.184 158.18C783.827 158.18 781.782 157.833 780.048 157.14C778.35 156.412 776.946 155.424 775.836 154.176C774.727 152.928 773.895 151.454 773.34 149.756C772.82 148.022 772.56 146.133 772.56 144.088ZM791.124 141.436C791.159 139.252 790.604 137.466 789.46 136.08C788.351 134.658 786.808 133.948 784.832 133.948C783.723 133.948 782.735 134.173 781.868 134.624C781.036 135.04 780.326 135.594 779.736 136.288C779.147 136.981 778.679 137.778 778.332 138.68C778.02 139.581 777.812 140.5 777.708 141.436H791.124ZM825.787 157.556H820.951V145.596H808.471V157.556H803.635V130.516H808.471V141.54H820.951V130.516H825.787V157.556ZM853.708 130.516V134.572H844.92V157.556H840.084V134.572H831.296V130.516H853.708ZM868.366 154.072C869.51 154.072 870.516 154.054 871.382 154.02C872.284 153.95 873.029 153.846 873.618 153.708V145.648C873.272 145.474 872.7 145.336 871.902 145.232C871.14 145.093 870.204 145.024 869.094 145.024C868.366 145.024 867.586 145.076 866.754 145.18C865.957 145.284 865.212 145.509 864.518 145.856C863.86 146.168 863.305 146.618 862.854 147.208C862.404 147.762 862.178 148.508 862.178 149.444C862.178 151.177 862.733 152.39 863.842 153.084C864.952 153.742 866.46 154.072 868.366 154.072ZM867.95 129.84C869.892 129.84 871.521 130.1 872.838 130.62C874.19 131.105 875.265 131.816 876.062 132.752C876.894 133.653 877.484 134.745 877.83 136.028C878.177 137.276 878.35 138.662 878.35 140.188V157.088C877.934 157.157 877.345 157.261 876.582 157.4C875.854 157.504 875.022 157.608 874.086 157.712C873.15 157.816 872.128 157.902 871.018 157.972C869.944 158.076 868.869 158.128 867.794 158.128C866.269 158.128 864.865 157.972 863.582 157.66C862.3 157.348 861.19 156.862 860.254 156.204C859.318 155.51 858.59 154.609 858.07 153.5C857.55 152.39 857.29 151.056 857.29 149.496C857.29 148.005 857.585 146.722 858.174 145.648C858.798 144.573 859.63 143.706 860.67 143.048C861.71 142.389 862.924 141.904 864.31 141.592C865.697 141.28 867.153 141.124 868.678 141.124C869.164 141.124 869.666 141.158 870.186 141.228C870.706 141.262 871.192 141.332 871.642 141.436C872.128 141.505 872.544 141.574 872.89 141.644C873.237 141.713 873.48 141.765 873.618 141.8V140.448C873.618 139.65 873.532 138.87 873.358 138.108C873.185 137.31 872.873 136.617 872.422 136.028C871.972 135.404 871.348 134.918 870.55 134.572C869.788 134.19 868.782 134 867.534 134C865.94 134 864.536 134.121 863.322 134.364C862.144 134.572 861.26 134.797 860.67 135.04L860.098 131.036C860.722 130.758 861.762 130.498 863.218 130.256C864.674 129.978 866.252 129.84 867.95 129.84Z" fill="#025694"/>
</svg>