<svg width="10" height="20" viewBox="0 0 10 20" fill="none" xmlns="http://www.w3.org/2000/svg">
<path d="M9.67997 9.68264C9.68058 9.99417 9.57208 10.2961 9.37331 10.536L2.70664 18.536C2.48032 18.8083 2.15511 18.9795 1.80254 19.012C1.44997 19.0445 1.09893 18.9356 0.82664 18.7093C0.554351 18.483 0.383119 18.1578 0.350613 17.8052C0.318106 17.4526 0.426988 17.1016 0.653306 16.8293L6.62664 9.68264L0.866641 2.53597C0.755886 2.39959 0.673177 2.24266 0.623268 2.07421C0.573359 1.90576 0.557234 1.7291 0.57582 1.5544C0.594405 1.37969 0.647334 1.21038 0.731566 1.0562C0.815798 0.902017 0.929671 0.766002 1.06664 0.655971C1.20374 0.533864 1.36457 0.441387 1.53907 0.38433C1.71357 0.327272 1.89797 0.306869 2.08072 0.324394C2.26347 0.341917 2.44063 0.396991 2.60111 0.486169C2.76158 0.575347 2.90191 0.696706 3.01331 0.842639L9.4533 8.84264C9.62066 9.08942 9.70047 9.38517 9.67997 9.68264Z" fill="#212121"/>
</svg>