<svg width="20" height="10" viewBox="0 0 20 10" fill="none" xmlns="http://www.w3.org/2000/svg">
<path d="M10.0296 0.00252414C10.3412 0.00191474 10.6431 0.110415 10.883 0.30919L18.883 6.97585C19.1552 7.20217 19.3265 7.52739 19.359 7.87996C19.3915 8.23253 19.2826 8.58357 19.0563 8.85586C18.83 9.12814 18.5048 9.29938 18.1522 9.33188C17.7996 9.36439 17.4486 9.25551 17.1763 9.02919L10.0296 3.05586L2.88296 8.81585C2.74657 8.92661 2.58964 9.00932 2.42119 9.05923C2.25274 9.10914 2.07609 9.12526 1.90138 9.10668C1.72668 9.08809 1.55737 9.03516 1.40318 8.95093C1.249 8.8667 1.11299 8.75282 1.00296 8.61585C0.880849 8.47876 0.788372 8.31792 0.731315 8.14343C0.674257 7.96893 0.653854 7.78453 0.671379 7.60178C0.688901 7.41903 0.743976 7.24186 0.833154 7.08139C0.922332 6.92091 1.04369 6.78058 1.18962 6.66919L9.18962 0.229191C9.4364 0.061836 9.73215 -0.0179703 10.0296 0.00252414Z" fill="#212121"/>
</svg>