<svg width="20" height="10" viewBox="0 0 20 10" fill="none" xmlns="http://www.w3.org/2000/svg">
<path d="M10.0002 9.33424C9.68863 9.33485 9.38672 9.22635 9.14684 9.02757L1.14684 2.36091C0.87455 2.13459 0.703317 1.80937 0.670811 1.4568C0.638304 1.10424 0.747187 0.753195 0.973505 0.480906C1.19982 0.208617 1.52504 0.0373854 1.87761 0.00487908C2.23017 -0.0276272 2.58122 0.0812547 2.8535 0.307573L10.0002 6.28091L17.1468 0.520907C17.2832 0.410152 17.4401 0.327443 17.6086 0.277534C17.7771 0.227626 17.9537 0.2115 18.1284 0.230086C18.3031 0.248672 18.4724 0.301601 18.6266 0.385832C18.7808 0.470064 18.9168 0.583938 19.0268 0.720906C19.1489 0.858002 19.2414 1.01884 19.2985 1.19333C19.3555 1.36783 19.3759 1.55223 19.3584 1.73499C19.3409 1.91774 19.2858 2.0949 19.1966 2.25537C19.1075 2.41585 18.9861 2.55618 18.8402 2.66757L10.8402 9.10757C10.5934 9.27493 10.2976 9.35473 10.0002 9.33424Z" fill="#212121"/>
</svg>