<svg width="24" height="24" viewBox="0 0 24 24" fill="none" xmlns="http://www.w3.org/2000/svg">
    <path d="M4.43087 2.60604L5.92765 1.10969C5.9637 1.07347 5.98887 1.02786 6.00027 0.978048C6.01168 0.928238 6.00888 0.876226 5.99218 0.82793C5.97549 0.779633 5.94557 0.73699 5.90583 0.70485C5.8661 0.672711 5.81814 0.652365 5.7674 0.646126L0.305358 0.00191071C0.131473 -0.0185406 -0.0185458 0.128027 0.00191125 0.305271L0.64631 5.76577C0.673586 5.99073 0.949757 6.08617 1.11 5.92597L2.59996 4.43643L7.15849 8.99025C7.26418 9.09592 7.43807 9.09592 7.54376 8.99025L8.9894 7.54844C9.09509 7.44277 9.09509 7.26894 8.9894 7.16327L4.43087 2.60604ZM16.4562 8.99025C16.5619 9.09592 16.7358 9.09592 16.8415 8.99025L21.4 4.43643L22.89 5.92597C22.9262 5.96201 22.9718 5.98717 23.0217 5.99857C23.0715 6.00998 23.1235 6.00717 23.1718 5.99048C23.2201 5.97379 23.2628 5.94388 23.2949 5.90416C23.3271 5.86443 23.3474 5.81648 23.3537 5.76577L23.9981 0.30868C24.0185 0.134844 23.8719 -0.0151318 23.6946 0.00531946L18.2326 0.649535C18.0076 0.676803 17.9121 0.952896 18.0723 1.1131L19.5691 2.60945L15.0106 7.15986C14.9598 7.21111 14.9314 7.28032 14.9314 7.35245C14.9314 7.42457 14.9598 7.49378 15.0106 7.54503L16.4562 8.99025ZM23.3537 18.2342C23.3264 18.0093 23.0502 17.9138 22.89 18.074L21.4 19.5636L16.8415 15.0097C16.7902 14.959 16.721 14.9305 16.6489 14.9305C16.5767 14.9305 16.5075 14.959 16.4562 15.0097L15.0106 16.4516C14.9598 16.5028 14.9314 16.572 14.9314 16.6441C14.9314 16.7163 14.9598 16.7855 15.0106 16.8367L19.5691 21.394L18.0723 22.8903C18.0363 22.9265 18.0111 22.9721 17.9997 23.022C17.9883 23.0718 17.9911 23.1238 18.0078 23.1721C18.0245 23.2204 18.0544 23.263 18.0942 23.2951C18.1339 23.3273 18.1819 23.3476 18.2326 23.3539L23.6946 23.9981C23.8685 24.0185 24.0185 23.872 23.9981 23.6947L23.3537 18.2342ZM7.54376 15.0097C7.4925 14.959 7.42327 14.9305 7.35112 14.9305C7.27898 14.9305 7.20975 14.959 7.15849 15.0097L2.59996 19.5636L1.11 18.074C1.07377 18.038 1.02815 18.0128 0.978325 18.0014C0.928501 17.99 0.876475 17.9928 0.828165 18.0095C0.779855 18.0262 0.737199 18.0561 0.705051 18.0958C0.672902 18.1356 0.65255 18.1835 0.64631 18.2342L0.00191125 23.6913C-0.0185458 23.8652 0.128063 24.0151 0.305358 23.9947L5.7674 23.3505C5.99243 23.3232 6.0879 23.0471 5.92765 22.8869L4.43087 21.394L8.9894 16.8401C9.09509 16.7345 9.09509 16.5606 8.9894 16.455L7.54376 15.0097Z"
          fill="#00447C"/>
</svg>