<svg width="154" height="32" viewBox="0 0 154 32" fill="none" xmlns="http://www.w3.org/2000/svg">
<ellipse cx="5.99933" cy="15" rx="5.99933" ry="6" fill="current"/>
<ellipse cx="138.002" cy="16" rx="15.9982" ry="16" fill="current"/>
<line x1="6" y1="15" x2="136" y2="15" stroke="current" stroke-width="2"/>
<path d="M139.765 18.436C139.765 18.04 139.687 17.686 139.531 17.374C139.375 17.062 139.099 16.798 138.703 16.582C138.319 16.366 137.797 16.204 137.137 16.096C136.489 15.988 135.667 15.934 134.671 15.934C134.803 14.782 134.905 13.69 134.977 12.658C135.049 11.614 135.109 10.57 135.157 9.526H141.529V11.362H137.011C136.999 11.566 136.981 11.8 136.957 12.064C136.945 12.316 136.927 12.574 136.903 12.838C136.891 13.102 136.873 13.354 136.849 13.594C136.825 13.834 136.801 14.038 136.777 14.206C138.553 14.302 139.861 14.71 140.701 15.43C141.553 16.138 141.979 17.11 141.979 18.346C141.979 18.91 141.883 19.432 141.691 19.912C141.499 20.392 141.205 20.806 140.809 21.154C140.413 21.502 139.915 21.778 139.315 21.982C138.715 22.174 138.013 22.27 137.209 22.27C136.885 22.27 136.555 22.246 136.219 22.198C135.883 22.15 135.559 22.09 135.247 22.018C134.947 21.958 134.677 21.892 134.437 21.82C134.197 21.748 134.017 21.682 133.897 21.622L134.311 19.786C134.563 19.906 134.923 20.038 135.391 20.182C135.871 20.314 136.453 20.38 137.137 20.38C137.605 20.38 138.007 20.332 138.343 20.236C138.679 20.128 138.949 19.984 139.153 19.804C139.369 19.624 139.525 19.42 139.621 19.192C139.717 18.952 139.765 18.7 139.765 18.436Z" fill="white"/>
</svg>