<svg width="152" height="32" viewBox="0 0 152 32" fill="none" xmlns="http://www.w3.org/2000/svg">
<line x1="147" y1="17" x2="17" y2="17" stroke="current" stroke-width="2"/>
<circle r="16" transform="matrix(-1 0 0 1 16 16)" fill="current"/>
<path d="M17.8038 12.208C17.5158 12.556 17.2158 12.928 16.9038 13.324C16.6038 13.72 16.3098 14.134 16.0218 14.566C15.7338 14.998 15.4578 15.442 15.1938 15.898C14.9298 16.342 14.6898 16.786 14.4738 17.23H17.8038V12.208ZM19.9278 9.526V17.23H21.3318V19.012H19.9278V22H17.8038V19.012H12.3318V17.464C12.5718 16.936 12.8898 16.33 13.2858 15.646C13.6938 14.962 14.1438 14.26 14.6358 13.54C15.1278 12.82 15.6498 12.112 16.2018 11.416C16.7538 10.72 17.3058 10.09 17.8578 9.526H19.9278Z" fill="white"/>
<circle cx="146" cy="16" r="6" fill="current"/>
</svg>