<svg width="152" height="32" viewBox="0 0 152 32" fill="none" xmlns="http://www.w3.org/2000/svg">
<line x1="147" y1="17" x2="17" y2="17" stroke="current" stroke-width="2"/>
<circle r="16" transform="matrix(-1 0 0 1 16 16)" fill="current"/>
<path d="M20.3958 12.766C20.3958 13.198 20.3058 13.624 20.1258 14.044C19.9458 14.452 19.7118 14.854 19.4238 15.25C19.1478 15.634 18.8298 16.012 18.4698 16.384C18.1098 16.744 17.7498 17.098 17.3898 17.446C17.1978 17.626 16.9818 17.842 16.7418 18.094C16.5018 18.346 16.2738 18.598 16.0578 18.85C15.8418 19.102 15.6558 19.348 15.4998 19.588C15.3438 19.816 15.2598 20.008 15.2478 20.164H20.7918V22H12.8538C12.8418 21.904 12.8358 21.79 12.8358 21.658C12.8358 21.514 12.8358 21.406 12.8358 21.334C12.8358 20.758 12.9258 20.23 13.1058 19.75C13.2978 19.258 13.5438 18.802 13.8438 18.382C14.1438 17.962 14.4798 17.566 14.8518 17.194C15.2238 16.822 15.5958 16.456 15.9678 16.096C16.2558 15.82 16.5318 15.55 16.7958 15.286C17.0598 15.022 17.2878 14.764 17.4798 14.512C17.6838 14.248 17.8458 13.984 17.9658 13.72C18.0858 13.444 18.1458 13.162 18.1458 12.874C18.1458 12.25 17.9658 11.806 17.6058 11.542C17.2458 11.278 16.8078 11.146 16.2918 11.146C15.9558 11.146 15.6438 11.194 15.3558 11.29C15.0678 11.386 14.8098 11.5 14.5818 11.632C14.3658 11.764 14.1738 11.902 14.0058 12.046C13.8378 12.178 13.7118 12.286 13.6278 12.37L12.5478 10.84C13.0518 10.36 13.6398 9.976 14.3118 9.688C14.9958 9.388 15.7278 9.238 16.5078 9.238C17.8398 9.238 18.8178 9.556 19.4418 10.192C20.0778 10.816 20.3958 11.674 20.3958 12.766Z" fill="white"/>
<circle cx="146" cy="16" r="6" fill="current"/>
</svg>