<svg width="152" height="32" viewBox="0 0 152 32" fill="none" xmlns="http://www.w3.org/2000/svg">
<circle cx="6" cy="15" r="6" fill="current"/>
<circle cx="136" cy="16" r="16" fill="current"/>
<line x1="6" y1="15" x2="136" y2="15" stroke="current" stroke-width="2"/>
<path d="M135.359 22.27C135.035 22.27 134.699 22.246 134.351 22.198C134.015 22.162 133.691 22.108 133.379 22.036C133.079 21.976 132.803 21.91 132.551 21.838C132.299 21.754 132.107 21.676 131.975 21.604L132.407 19.75C132.659 19.87 133.025 20.008 133.505 20.164C133.985 20.308 134.579 20.38 135.287 20.38C136.235 20.38 136.919 20.2 137.339 19.84C137.759 19.468 137.969 18.976 137.969 18.364C137.969 17.968 137.885 17.638 137.717 17.374C137.561 17.11 137.339 16.9 137.051 16.744C136.775 16.576 136.451 16.462 136.079 16.402C135.719 16.33 135.335 16.294 134.927 16.294H134.189V14.53H135.089C135.365 14.53 135.641 14.506 135.917 14.458C136.205 14.398 136.463 14.302 136.691 14.17C136.919 14.026 137.105 13.84 137.249 13.612C137.393 13.384 137.465 13.09 137.465 12.73C137.465 12.442 137.411 12.196 137.303 11.992C137.195 11.788 137.051 11.62 136.871 11.488C136.703 11.356 136.505 11.26 136.277 11.2C136.049 11.14 135.809 11.11 135.557 11.11C135.017 11.11 134.537 11.194 134.117 11.362C133.697 11.518 133.325 11.698 133.001 11.902L132.209 10.282C132.377 10.174 132.581 10.06 132.821 9.94C133.061 9.82 133.325 9.706 133.613 9.598C133.913 9.49 134.231 9.406 134.567 9.346C134.903 9.274 135.257 9.238 135.629 9.238C136.325 9.238 136.925 9.322 137.429 9.49C137.933 9.658 138.347 9.898 138.671 10.21C139.007 10.51 139.253 10.87 139.409 11.29C139.577 11.698 139.661 12.148 139.661 12.64C139.661 13.216 139.499 13.732 139.175 14.188C138.863 14.644 138.455 14.992 137.951 15.232C138.599 15.46 139.133 15.838 139.553 16.366C139.985 16.894 140.201 17.572 140.201 18.4C140.201 18.952 140.105 19.468 139.913 19.948C139.721 20.416 139.427 20.824 139.031 21.172C138.635 21.508 138.131 21.778 137.519 21.982C136.919 22.174 136.199 22.27 135.359 22.27Z" fill="white"/>
</svg>